<svg preserveAspectRatio="none" overflow="visible" style="display: block;" width="24" height="24" viewBox="0 0 24 24" fill="none" xmlns="http://www.w3.org/2000/svg">
<g id="Redes sociales">
<g id="Vector">
<path d="M15.1713 11.9889C15.1713 13.8895 13.6464 15.4144 11.768 15.4144C9.8895 15.4144 8.34254 13.8895 8.34254 11.9889C8.34254 10.0884 9.8674 8.58564 11.768 8.58564C13.6685 8.58564 15.1713 10.1105 15.1713 11.9889Z" fill="#1C1C1F"/>
<path d="M16.1878 2H7.81215C4.60773 2 2 4.60773 2 7.81215V16.1878C2 19.3923 4.60773 22 7.81215 22H16.1878C19.3923 22 22 19.3923 22 16.1878V7.81215C22 4.60773 19.3923 2 16.1878 2ZM11.768 17.3591C8.80663 17.3591 6.39779 14.9503 6.39779 11.9889C6.39779 9.02762 8.80663 6.64088 11.768 6.64088C14.7293 6.64088 17.116 9.04972 17.116 11.9889C17.116 14.9282 14.7072 17.3591 11.768 17.3591ZM17.116 7.63536C16.4309 7.63536 15.8785 7.06077 15.8785 6.37569C15.8785 5.69061 16.4309 5.13812 17.116 5.13812C17.8011 5.13812 18.3536 5.71271 18.3536 6.37569C18.3536 7.03867 17.8011 7.63536 17.116 7.63536Z" fill="#1C1C1F"/>
<path d="M15.1713 11.9889C15.1713 13.8895 13.6464 15.4144 11.768 15.4144C9.8895 15.4144 8.34254 13.8895 8.34254 11.9889C8.34254 10.0884 9.8674 8.58564 11.768 8.58564C13.6685 8.58564 15.1713 10.1105 15.1713 11.9889Z" fill="#1C1C1F"/>
<path d="M15.1713 11.9889C15.1713 13.8895 13.6464 15.4144 11.768 15.4144C9.8895 15.4144 8.34254 13.8895 8.34254 11.9889C8.34254 10.0884 9.8674 8.58564 11.768 8.58564C13.6685 8.58564 15.1713 10.1105 15.1713 11.9889Z" fill="#1C1C1F"/>
</g>
</g>
</svg>
