<svg preserveAspectRatio="none" overflow="visible" style="display: block;" width="54.4645" height="42.4893" viewBox="0 0 54.4645 42.4893" fill="none" xmlns="http://www.w3.org/2000/svg">
<path id="Long Shadow (Merged)" d="M20.1224 0C24.3938 8.93092e-05 27.7693 1.17205 29.1526 1.77344C29.1717 1.78175 29.1914 1.79102 29.2103 1.7998C30.2811 2.2979 32.0349 3.17489 32.6732 5.17676C33.2568 7.0079 32.6555 9.03429 31.7601 11.0811C31.7582 11.0854 31.7561 11.0904 31.7542 11.0947C31.3906 11.9128 30.964 12.6597 30.6409 13.1865C30.4769 13.4539 30.3334 13.6751 30.2288 13.832C30.1764 13.9106 30.1332 13.9741 30.1019 14.0195C30.0863 14.0421 30.0733 14.0606 30.0638 14.0742C30.0592 14.0808 30.0552 14.0864 30.0521 14.0908C30.0505 14.093 30.0484 14.0951 30.0472 14.0967L30.0462 14.0996L30.0452 14.1006C29.8622 14.359 29.6366 14.5722 29.386 14.7383C29.3742 14.7554 29.3645 14.7701 29.3567 14.7812C29.3522 14.7877 29.3481 14.7935 29.345 14.7979C29.3436 14.7999 29.3414 14.8021 29.3401 14.8037L29.3392 14.8066L29.3382 14.8076C29.1551 15.0661 28.9296 15.2792 28.679 15.4453C28.6672 15.4624 28.6575 15.4772 28.6497 15.4883C28.6452 15.4947 28.6411 15.5005 28.638 15.5049C28.6365 15.507 28.6343 15.5092 28.6331 15.5107L28.6321 15.5137L28.6312 15.5146C28.4477 15.7737 28.2213 15.9871 27.97 16.1533C27.9585 16.17 27.9493 16.1844 27.9417 16.1953C27.9371 16.2019 27.9331 16.2075 27.93 16.2119C27.9285 16.2141 27.9263 16.2162 27.9251 16.2178L27.9241 16.2207L27.9232 16.2217C27.8355 16.3454 27.736 16.4576 27.6312 16.5605C28.7722 17.2908 29.7325 18.152 30.4974 19.1543C31.6906 20.7181 32.2969 22.4747 32.4808 24.291C36.3015 16.4785 40.5597 7.70539 41.2503 6.2041L41.2855 6.13086C41.633 5.43582 42.1959 4.43267 43.1087 3.67773C43.3169 3.43178 43.5496 3.19175 43.8128 2.97363C44.0217 2.72657 44.2555 2.48565 44.5198 2.2666C45.3071 1.33525 46.4646 0.506013 48.1692 0.505859H50.6458C51.8366 0.506074 53.4022 0.993427 54.1351 2.58496C54.7852 3.99743 54.3614 5.43255 53.8255 6.42578L53.8265 6.42676C52.2658 9.44751 41.1742 31.7834 39.0794 36.4219C39.0707 36.4411 39.0622 36.4605 39.053 36.4795C38.6812 37.2497 38.1715 38.1737 37.3216 38.8564C37.115 39.1076 36.8826 39.3481 36.6146 39.5635C36.407 39.8158 36.1733 40.0573 35.9036 40.2734C35.6839 40.5401 35.4364 40.7962 35.1468 41.0215C34.1541 41.7935 33.0534 41.9843 32.0521 41.9844H29.7786C28.3441 41.9844 27.0271 41.2005 26.4271 39.8291C26.1729 39.248 26.0829 38.6489 26.1116 38.0674C25.7366 38.4171 25.341 38.7491 24.9232 39.0596C21.7437 41.4212 17.5556 42.4892 13.0491 42.4893C9.27741 42.4893 5.72033 41.4405 4.3714 40.8887C2.70668 40.2389 1.01719 39.1902 0.313778 37.2363C-0.357883 35.3703 0.149879 33.4066 0.88702 31.6553C1.30395 30.5379 1.85191 29.6147 2.29034 28.9756C2.51968 28.6413 2.72668 28.3722 2.88214 28.1807C2.95989 28.0849 3.02572 28.0076 3.0755 27.9502C3.10038 27.9215 3.12229 27.8976 3.13897 27.8789C3.14724 27.8697 3.15436 27.8612 3.16046 27.8545C3.1633 27.8514 3.16592 27.8483 3.16827 27.8457L3.17413 27.8398C3.17438 27.8398 3.17744 27.8417 3.25323 27.9111L3.25421 27.9102L3.17511 27.8379C3.29899 27.7033 3.43586 27.5868 3.58038 27.4854C3.5836 27.4814 3.58696 27.4775 3.59014 27.4736C3.66782 27.378 3.73377 27.3005 3.7835 27.2432C3.8083 27.2146 3.83035 27.1905 3.84698 27.1719C3.85515 27.1627 3.86242 27.1541 3.86847 27.1475C3.87121 27.1444 3.87399 27.1412 3.87628 27.1387L3.88214 27.1328C3.88344 27.1338 3.89195 27.1416 3.96026 27.2041L3.96124 27.2021L3.88311 27.1309C4.00618 26.9971 4.142 26.8813 4.28546 26.7803C4.28926 26.7756 4.29343 26.7712 4.29718 26.7666C4.37485 26.6709 4.4408 26.5934 4.49054 26.5361C4.51534 26.5076 4.53738 26.4834 4.55401 26.4648C4.56218 26.4557 4.56945 26.4471 4.5755 26.4404C4.57825 26.4374 4.58102 26.4341 4.58331 26.4316L4.58917 26.4258C4.59047 26.4267 4.59947 26.4341 4.66827 26.4971L4.59015 26.4238C4.71321 26.2901 4.84903 26.1742 4.99249 26.0732C4.9963 26.0685 5.00046 26.0642 5.00421 26.0596C5.08193 25.9638 5.14781 25.8864 5.19757 25.8291C5.22242 25.8005 5.24438 25.7764 5.26104 25.7578C5.26927 25.7486 5.27645 25.7401 5.28253 25.7334C5.28533 25.7303 5.28802 25.7272 5.29034 25.7246L5.2962 25.7188C5.29819 25.7203 5.31243 25.7322 5.42022 25.8311L5.29718 25.7168C5.42944 25.5731 5.57618 25.4496 5.73175 25.3438C5.00615 24.8376 4.34076 24.2532 3.76104 23.5713C2.10018 21.6173 1.35404 19.1393 1.50811 16.2119L1.50909 16.1904C1.75572 12.1635 3.31163 8.77661 5.94854 6.32715C6.17304 6.08536 6.40762 5.85204 6.65069 5.62598C6.87677 5.38221 7.11278 5.14675 7.35772 4.91895C7.77829 4.46547 8.23177 4.03914 8.7171 3.6416C11.7083 1.19161 15.6978 2.02023e-05 20.1224 0Z" fill="#009330"/>
</svg>
